<svg width="214.64374999999998px" height="83.6px" xmlns="http://www.w3.org/2000/svg" viewBox="142.67812500000002 33.2 214.64374999999998 83.6" style="background: rgba(0, 0, 0, 0);" preserveAspectRatio="xMidYMid"><defs><linearGradient id="editing-gradow-gradient" x1="0" x2="1" y1="0.5" y2="0.5" gradientUnits="objectBoundingBox"><stop offset="0" stop-color="#f0f"></stop><stop offset="1" stop-color="#0ff"></stop></linearGradient><filter id="editing-gradow-filter" x="-100%" y="-100%" width="300%" height="300%"><feFlood flood-color="rgba(100%,100%,100%,0)" result="flood"></feFlood><feComposite operator="in" in2="SourceAlpha" in="flood" result="shadow"></feComposite><feOffset dx="-4" dy="-4" in="SourceGraphic" result="offset-1"></feOffset><feOffset dx="4" dy="4" in="shadow" result="offset-2"></feOffset><feMerge><feMergeNode in="offset-2"></feMergeNode><feMergeNode in="offset-1"></feMergeNode></feMerge></filter></defs><g filter="url(#editing-gradow-filter)"><g transform="translate(179.04000732302666, 89.80000114440918)"><path d="M16.32-26.68L16.32-26.68L16.32-26.68Q26.12-26.68 26.12-19.76L26.12-19.76L26.12-19.76Q26.12-15.96 23.68-13.68L23.68-13.68L23.68-13.68Q21.28-11.40 17.08-11.40L17.08-11.40L17.08-11.40Q15.12-11.40 13.60-12.52L13.60-12.52L13.60-12.52Q12.88-13 12.40-13.64L12.40-13.64L12.40-13.64Q15.32-13.64 16.86-15.42L16.86-15.42L16.86-15.42Q18.40-17.20 18.40-20.68L18.40-20.68L18.40-20.68Q18.40-24.16 14.96-24.16L14.96-24.16L14-24.16L14-24.16Q13.76-24.16 13.56-24.12L13.56-24.12L8.96 0L0.28 0L5.20-26.20L5.20-26.20Q9.48-26.60 11.96-26.64L11.96-26.64L11.96-26.64Q14.44-26.68 16.32-26.68ZM35.04 0.80L35.04 0.80L35.04 0.80Q26.24 0.80 26.24-7.48L26.24-7.48L26.24-7.48Q26.24-13.36 29.48-17.16L29.48-17.16L29.48-17.16Q32.92-21.20 38.88-21.20L38.88-21.20L38.88-21.20Q43.20-21.20 45.40-19.20L45.40-19.20L45.40-19.20Q47.60-17.20 47.60-13L47.60-13L47.60-13Q47.60-6.60 44.16-2.88L44.16-2.88L44.16-2.88Q40.80 0.80 35.04 0.80ZM36.08-16.60L36.08-16.60L36.08-16.60Q35.60-15.52 35.22-13.90L35.22-13.90L35.22-13.90Q34.84-12.28 34.36-9.72L34.36-9.72L34.36-9.72Q33.88-7.16 33.88-4L33.88-4L33.88-4Q33.88-2.96 34.22-2.28L34.22-2.28L34.22-2.28Q34.56-1.60 35.48-1.60L35.48-1.60L35.48-1.60Q36.40-1.60 36.98-2.04L36.98-2.04L36.98-2.04Q37.56-2.48 38-3.52L38-3.52L38-3.52Q38.80-5.36 39.44-8.78L39.44-8.78L39.44-8.78Q40.08-12.20 40.14-13.68L40.14-13.68L40.14-13.68Q40.20-15.16 40.20-16.26L40.20-16.26L40.20-16.26Q40.20-17.36 39.88-18.08L39.88-18.08L39.88-18.08Q39.56-18.80 38.66-18.80L38.66-18.80L38.66-18.80Q37.76-18.80 37.16-18.24L37.16-18.24L37.16-18.24Q36.56-17.68 36.08-16.60ZM49.44-1.92L49.44-1.92L54.40-28L62.52-28.80L61.28-22.68L61.28-22.68Q60.84-20.80 60.28-19.48L60.28-19.48L60.28-19.48Q61.16-20.60 63.08-21.04L63.08-21.04L63.08-21.04Q63.64-21.20 64.32-21.20L64.32-21.20L64.32-21.20Q68.04-21.20 70.08-18.94L70.08-18.94L70.08-18.94Q72.12-16.68 72.12-12.32L72.12-12.32L72.12-12.32Q72.12-6.64 68.88-3.08L68.88-3.08L68.88-3.08Q65.40 0.80 59.08 0.80L59.08 0.80L59.08 0.80Q54.72 0.80 51.44-0.64L51.44-0.64L51.44-0.64Q50.28-1.16 49.44-1.92ZM59.60-14L57.48-2.28L57.48-2.28Q58.32-1.56 59.36-1.56L59.36-1.56L59.36-1.56Q60.40-1.56 61-1.96L61-1.96L61-1.96Q61.60-2.36 62.04-3.16L62.04-3.16L62.04-3.16Q63.24-5.32 64.20-11.92L64.20-11.92L64.20-11.92Q64.48-13.80 64.48-15.68L64.48-15.68L64.48-15.68Q64.48-17.56 64.06-18.16L64.06-18.16L64.06-18.16Q63.64-18.76 62.84-18.76L62.84-18.76L62.84-18.76Q60.40-18.76 59.60-14L59.60-14ZM87.04-11.24L87.04-11.24L87.04-11.24Q88.48-13.80 88.48-16.40L88.48-16.40L88.48-16.40Q88.48-18.12 87.24-18.12L87.24-18.12L87.24-18.12Q86.28-18.12 85.28-16.48L85.28-16.48L85.28-16.48Q84.24-14.84 83.92-12.72L83.92-12.72L81.84 0L73.56 0.80L77.64-20.40L84.24-21.20L83.52-17.16L83.52-17.16Q85.48-21.20 89.88-21.20L89.88-21.20L89.88-21.20Q92.20-21.20 93.46-20L93.46-20L93.46-20Q94.72-18.80 94.72-16.34L94.72-16.34L94.72-16.34Q94.72-13.88 93.10-12.32L93.10-12.32L93.10-12.32Q91.48-10.76 88.72-10.76L88.72-10.76L88.72-10.76Q87.52-10.76 87.04-11.24ZM111.56-6.76L111.56-6.76L111.56-6.76Q112.56-6.08 112.56-4.58L112.56-4.58L112.56-4.58Q112.56-3.08 111.80-2.12L111.80-2.12L111.80-2.12Q111.04-1.16 109.80-0.52L109.80-0.52L109.80-0.52Q107.24 0.80 104.48 0.80L104.48 0.80L104.48 0.80Q101.72 0.80 100.10 0.20L100.10 0.20L100.10 0.20Q98.48-0.40 97.40-1.52L97.40-1.52L97.40-1.52Q95.28-3.64 95.28-7.52L95.28-7.52L95.28-7.52Q95.28-13.56 98.56-17.24L98.56-17.24L98.56-17.24Q102.08-21.20 108.20-21.20L108.20-21.20L108.20-21.20Q112-21.20 113.88-19.60L113.88-19.60L113.88-19.60Q115.28-18.40 115.28-16.44L115.28-16.44L115.28-16.44Q115.28-9.40 103.12-9.40L103.12-9.40L103.12-9.40Q102.96-8.36 102.96-7.48L102.96-7.48L102.96-7.48Q102.96-5.64 103.78-4.94L103.78-4.94L103.78-4.94Q104.60-4.24 106.12-4.24L106.12-4.24L106.12-4.24Q107.64-4.24 109.26-4.94L109.26-4.94L109.26-4.94Q110.88-5.64 111.56-6.76ZM103.40-11.12L103.40-11.12L103.40-11.12Q106.24-11.12 107.88-12.88L107.88-12.88L107.88-12.88Q109.52-14.56 109.52-17.24L109.52-17.24L109.52-17.24Q109.52-18.16 109.18-18.66L109.18-18.66L109.18-18.66Q108.84-19.16 108.16-19.16L108.16-19.16L108.16-19.16Q107.48-19.16 106.90-18.90L106.90-18.90L106.90-18.90Q106.32-18.64 105.72-17.76L105.72-17.76L105.72-17.76Q104.24-15.76 103.40-11.12ZM130.32-7.60L124.60-7.60L124.60-7.60Q124.44-8.08 124.44-9.06L124.44-9.06L124.44-9.06Q124.44-10.04 125.26-10.86L125.26-10.86L125.26-10.86Q126.08-11.68 127.36-11.68L127.36-11.68L131.08-11.68L131.88-15.96L131.88-15.96Q132.16-17.20 133.02-17.92L133.02-17.92L133.02-17.92Q133.88-18.64 134.96-18.64L134.96-18.64L134.96-18.64Q136.04-18.64 136.76-18.36L136.76-18.36L135.48-11.68L141.44-11.68L141.56-11.04L141.56-11.04Q141.64-10.76 141.64-10.48L141.64-10.48L141.64-10.48Q141.64-9.12 140.72-8.36L140.72-8.36L140.72-8.36Q139.80-7.60 138.28-7.60L138.28-7.60L134.68-7.60L133.72-2.68L133.72-2.68Q133.20-0.24 130.64-0.24L130.64-0.24L130.64-0.24Q129.72-0.24 128.88-0.52L128.88-0.52L130.32-7.60Z" fill="url(#editing-gradow-gradient)"></path></g></g><style>text {
  font-size: 64px;
  font-family: Arial Black;
  dominant-baseline: central;
  text-anchor: middle;
}</style></svg>